<mxfile host="65bd71144e">
    <diagram id="tgDNibTG5m74yoMAJOJy" name="Page-1">
        <mxGraphModel dx="913" dy="635" grid="1" gridSize="10" guides="1" tooltips="1" connect="1" arrows="1" fold="1" page="1" pageScale="1" pageWidth="827" pageHeight="1169" math="0" shadow="0">
            <root>
                <mxCell id="0"/>
                <mxCell id="1" parent="0"/>
                <mxCell id="2" value="" style="rounded=1;whiteSpace=wrap;html=1;fillColor=#f5f5f5;fontColor=#333333;strokeColor=#666666;dashed=1;dashPattern=12 12;" vertex="1" parent="1">
                    <mxGeometry x="60" y="50" width="710" height="570" as="geometry"/>
                </mxCell>
                <mxCell id="47" style="edgeStyle=none;html=1;entryX=0.45;entryY=0;entryDx=0;entryDy=0;entryPerimeter=0;strokeColor=#000000;fontColor=#000000;startArrow=classic;startFill=1;" edge="1" parent="1" target="16">
                    <mxGeometry relative="1" as="geometry">
                        <mxPoint x="520" y="220" as="sourcePoint"/>
                        <Array as="points">
                            <mxPoint x="640" y="220"/>
                        </Array>
                    </mxGeometry>
                </mxCell>
                <mxCell id="6" value="" style="rounded=0;whiteSpace=wrap;html=1;fillColor=none;strokeColor=#0d0c0c;dashed=1;dashPattern=1 2;fontColor=#000000;" vertex="1" parent="1">
                    <mxGeometry x="316" y="90" width="200" height="270" as="geometry"/>
                </mxCell>
                <mxCell id="14" value="" style="rounded=1;whiteSpace=wrap;html=1;dashed=1;dashPattern=12 12;labelBackgroundColor=none;strokeColor=none;fillColor=#E6E6E6;gradientColor=none;" vertex="1" parent="1">
                    <mxGeometry x="336" y="250" width="149.51" height="60" as="geometry"/>
                </mxCell>
                <mxCell id="13" value="" style="rounded=1;whiteSpace=wrap;html=1;dashed=1;dashPattern=12 12;labelBackgroundColor=none;strokeColor=none;fillColor=#E6E6E6;gradientColor=none;" vertex="1" parent="1">
                    <mxGeometry x="336" y="174" width="150" height="60" as="geometry"/>
                </mxCell>
                <mxCell id="11" value="" style="rounded=1;whiteSpace=wrap;html=1;dashed=1;dashPattern=12 12;labelBackgroundColor=none;strokeColor=none;fillColor=#E6E6E6;gradientColor=none;" vertex="1" parent="1">
                    <mxGeometry x="336" y="97" width="150" height="56" as="geometry"/>
                </mxCell>
                <mxCell id="12" style="edgeStyle=none;html=1;fontColor=#000000;" edge="1" parent="1" source="11" target="6">
                    <mxGeometry relative="1" as="geometry"/>
                </mxCell>
                <mxCell id="3" value="" style="aspect=fixed;html=1;points=[];align=center;image;fontSize=12;image=img/lib/azure2/general/Resource_Groups.svg;" vertex="1" parent="1">
                    <mxGeometry x="89.41" y="90" width="31.88" height="30" as="geometry"/>
                </mxCell>
                <mxCell id="5" value="&amp;nbsp;10.10.0.0/16" style="sketch=0;aspect=fixed;html=1;points=[];align=left;image;fontSize=12;image=img/lib/mscae/Virtual_Network.svg;fontColor=#000000;labelBackgroundColor=none;labelPosition=right;verticalLabelPosition=middle;verticalAlign=middle;" vertex="1" parent="1">
                    <mxGeometry x="356.51" y="327" width="32.15" height="18" as="geometry"/>
                </mxCell>
                <mxCell id="8" value="Vm-hub" style="aspect=fixed;html=1;points=[];align=center;image;fontSize=12;image=img/lib/azure2/compute/Virtual_Machine.svg;dashed=1;dashPattern=12 12;strokeColor=#0d0c0c;fillColor=none;labelBackgroundColor=none;fontColor=#000000;" vertex="1" parent="1">
                    <mxGeometry x="357.09" y="180" width="32.35" height="30" as="geometry"/>
                </mxCell>
                <mxCell id="9" value="Azure Firewall" style="sketch=0;aspect=fixed;html=1;points=[];align=center;image;fontSize=12;image=img/lib/mscae/Azure_Firewall.svg;dashed=1;dashPattern=12 12;strokeColor=#0d0c0c;fillColor=none;labelBackgroundColor=none;fontColor=#000000;" vertex="1" parent="1">
                    <mxGeometry x="396.93" y="100" width="30" height="30" as="geometry"/>
                </mxCell>
                <mxCell id="10" value="Bations" style="aspect=fixed;html=1;points=[];align=center;image;fontSize=12;image=img/lib/azure2/networking/Bastions.svg;dashed=1;dashPattern=12 12;labelBackgroundColor=none;strokeColor=#0d0c0c;fontColor=#000000;fillColor=none;" vertex="1" parent="1">
                    <mxGeometry x="396.93" y="255" width="27.29" height="32" as="geometry"/>
                </mxCell>
                <mxCell id="15" value="nsg-hub" style="aspect=fixed;html=1;points=[];align=center;image;fontSize=12;image=img/lib/azure2/networking/Network_Security_Groups.svg;dashed=1;dashPattern=12 12;labelBackgroundColor=none;strokeColor=#0d0c0c;fontColor=#000000;fillColor=#E6E6E6;gradientColor=none;" vertex="1" parent="1">
                    <mxGeometry x="475.96" y="190" width="31.18" height="37.86" as="geometry"/>
                </mxCell>
                <mxCell id="16" value="" style="rounded=0;whiteSpace=wrap;html=1;fillColor=none;strokeColor=#0d0c0c;dashed=1;dashPattern=1 2;fontColor=#000000;" vertex="1" parent="1">
                    <mxGeometry x="549" y="316" width="200" height="180" as="geometry"/>
                </mxCell>
                <mxCell id="18" value="" style="rounded=1;whiteSpace=wrap;html=1;dashed=1;dashPattern=12 12;labelBackgroundColor=none;strokeColor=none;fillColor=#E6E6E6;gradientColor=none;" vertex="1" parent="1">
                    <mxGeometry x="571" y="398" width="140" height="46" as="geometry"/>
                </mxCell>
                <mxCell id="19" value="" style="rounded=1;whiteSpace=wrap;html=1;dashed=1;dashPattern=12 12;labelBackgroundColor=none;strokeColor=none;fillColor=#E6E6E6;gradientColor=none;" vertex="1" parent="1">
                    <mxGeometry x="574" y="326" width="135" height="51" as="geometry"/>
                </mxCell>
                <mxCell id="20" style="edgeStyle=none;html=1;fontColor=#000000;" edge="1" parent="1" source="19">
                    <mxGeometry relative="1" as="geometry">
                        <mxPoint x="635.8319327731092" y="316" as="targetPoint"/>
                    </mxGeometry>
                </mxCell>
                <mxCell id="21" value="&amp;nbsp;10.10.0.0/16" style="sketch=0;aspect=fixed;html=1;points=[];align=left;image;fontSize=12;image=img/lib/mscae/Virtual_Network.svg;fontColor=#000000;labelBackgroundColor=none;labelPosition=right;verticalLabelPosition=middle;verticalAlign=middle;" vertex="1" parent="1">
                    <mxGeometry x="583.36" y="463" width="32.15" height="18" as="geometry"/>
                </mxCell>
                <mxCell id="25" value="nsg-spoke02" style="aspect=fixed;html=1;points=[];align=center;image;fontSize=12;image=img/lib/azure2/networking/Network_Security_Groups.svg;dashed=1;dashPattern=12 12;labelBackgroundColor=none;strokeColor=#0d0c0c;fontColor=#000000;fillColor=#E6E6E6;gradientColor=none;" vertex="1" parent="1">
                    <mxGeometry x="722" y="381.83" width="21.14" height="25.67" as="geometry"/>
                </mxCell>
                <mxCell id="46" style="edgeStyle=none;html=1;entryX=0;entryY=0.5;entryDx=0;entryDy=0;strokeColor=#000000;fontColor=#000000;startArrow=classic;startFill=1;" edge="1" parent="1" source="26" target="6">
                    <mxGeometry relative="1" as="geometry">
                        <Array as="points">
                            <mxPoint x="180" y="225"/>
                        </Array>
                    </mxGeometry>
                </mxCell>
                <mxCell id="26" value="" style="rounded=0;whiteSpace=wrap;html=1;fillColor=none;strokeColor=#0d0c0c;dashed=1;dashPattern=1 2;fontColor=#000000;" vertex="1" parent="1">
                    <mxGeometry x="80" y="316" width="200" height="210" as="geometry"/>
                </mxCell>
                <mxCell id="28" value="" style="rounded=1;whiteSpace=wrap;html=1;dashed=1;dashPattern=12 12;labelBackgroundColor=none;strokeColor=none;fillColor=#E6E6E6;gradientColor=none;" vertex="1" parent="1">
                    <mxGeometry x="109" y="400" width="120" height="60" as="geometry"/>
                </mxCell>
                <mxCell id="29" value="" style="rounded=1;whiteSpace=wrap;html=1;dashed=1;dashPattern=12 12;labelBackgroundColor=none;strokeColor=none;fillColor=#E6E6E6;gradientColor=none;" vertex="1" parent="1">
                    <mxGeometry x="114" y="325" width="120" height="43" as="geometry"/>
                </mxCell>
                <mxCell id="30" style="edgeStyle=none;html=1;fontColor=#000000;" edge="1" parent="1" source="29" target="26">
                    <mxGeometry relative="1" as="geometry"/>
                </mxCell>
                <mxCell id="31" value="&amp;nbsp;10.10.0.0/16" style="sketch=0;aspect=fixed;html=1;points=[];align=left;image;fontSize=12;image=img/lib/mscae/Virtual_Network.svg;fontColor=#000000;labelBackgroundColor=none;labelPosition=right;verticalLabelPosition=middle;verticalAlign=middle;" vertex="1" parent="1">
                    <mxGeometry x="121.28999999999999" y="496" width="32.15" height="18" as="geometry"/>
                </mxCell>
                <mxCell id="32" value="vm-01" style="aspect=fixed;html=1;points=[];align=center;image;fontSize=12;image=img/lib/azure2/compute/Virtual_Machine.svg;dashed=1;dashPattern=12 12;strokeColor=#0d0c0c;fillColor=none;labelBackgroundColor=none;fontColor=#000000;" vertex="1" parent="1">
                    <mxGeometry x="121.08999999999992" y="408" width="32.35" height="30" as="geometry"/>
                </mxCell>
                <mxCell id="35" value="nsg-hub" style="aspect=fixed;html=1;points=[];align=center;image;fontSize=12;image=img/lib/azure2/networking/Network_Security_Groups.svg;dashed=1;dashPattern=12 12;labelBackgroundColor=none;strokeColor=#0d0c0c;fontColor=#000000;fillColor=#E6E6E6;gradientColor=none;" vertex="1" parent="1">
                    <mxGeometry x="239.96000000000004" y="416" width="31.18" height="37.86" as="geometry"/>
                </mxCell>
                <mxCell id="39" style="edgeStyle=none;html=1;fontColor=#000000;strokeColor=#000000;" edge="1" parent="1" source="36" target="38">
                    <mxGeometry relative="1" as="geometry">
                        <Array as="points">
                            <mxPoint x="681" y="353"/>
                        </Array>
                    </mxGeometry>
                </mxCell>
                <mxCell id="40" style="edgeStyle=none;html=1;strokeColor=#000000;fontColor=#000000;" edge="1" parent="1" source="36" target="37">
                    <mxGeometry relative="1" as="geometry">
                        <Array as="points">
                            <mxPoint x="601" y="356"/>
                        </Array>
                    </mxGeometry>
                </mxCell>
                <mxCell id="36" value="" style="aspect=fixed;html=1;points=[];align=center;image;fontSize=12;image=img/lib/azure2/networking/Application_Gateways.svg;dashed=1;dashPattern=12 12;labelBackgroundColor=none;strokeColor=#0d0c0c;fontColor=#000000;fillColor=#E6E6E6;gradientColor=none;" vertex="1" parent="1">
                    <mxGeometry x="624" y="334" width="37" height="37" as="geometry"/>
                </mxCell>
                <mxCell id="37" value="" style="aspect=fixed;html=1;points=[];align=center;image;fontSize=12;image=img/lib/azure2/app_services/App_Services.svg;dashed=1;dashPattern=12 12;labelBackgroundColor=none;strokeColor=#0d0c0c;fontColor=#000000;fillColor=#E6E6E6;gradientColor=none;" vertex="1" parent="1">
                    <mxGeometry x="583.51" y="407.5" width="33" height="33" as="geometry"/>
                </mxCell>
                <mxCell id="38" value="" style="aspect=fixed;html=1;points=[];align=center;image;fontSize=12;image=img/lib/azure2/app_services/App_Services.svg;dashed=1;dashPattern=12 12;labelBackgroundColor=none;strokeColor=#0d0c0c;fontColor=#000000;fillColor=#E6E6E6;gradientColor=none;" vertex="1" parent="1">
                    <mxGeometry x="665" y="407.5" width="33" height="33" as="geometry"/>
                </mxCell>
                <mxCell id="44" style="edgeStyle=none;html=1;strokeColor=#000000;fontColor=#000000;" edge="1" parent="1" source="41" target="32">
                    <mxGeometry relative="1" as="geometry"/>
                </mxCell>
                <mxCell id="45" style="edgeStyle=none;html=1;strokeColor=#000000;fontColor=#000000;" edge="1" parent="1" source="41" target="42">
                    <mxGeometry relative="1" as="geometry"/>
                </mxCell>
                <mxCell id="41" value="" style="sketch=0;aspect=fixed;html=1;points=[];align=center;image;fontSize=12;image=img/lib/mscae/Load_Balancer_feature.svg;dashed=1;dashPattern=12 12;labelBackgroundColor=none;strokeColor=#0d0c0c;fontColor=#000000;fillColor=#E6E6E6;gradientColor=none;" vertex="1" parent="1">
                    <mxGeometry x="155" y="328" width="38" height="38" as="geometry"/>
                </mxCell>
                <mxCell id="42" value="vm-02" style="aspect=fixed;html=1;points=[];align=center;image;fontSize=12;image=img/lib/azure2/compute/Virtual_Machine.svg;dashed=1;dashPattern=12 12;strokeColor=#0d0c0c;fillColor=none;labelBackgroundColor=none;fontColor=#000000;" vertex="1" parent="1">
                    <mxGeometry x="179.99999999999991" y="409" width="32.35" height="30" as="geometry"/>
                </mxCell>
            </root>
        </mxGraphModel>
    </diagram>
</mxfile>